<?xml version="1.0" encoding="utf-8"?><svg version="1.1" xmlns="http://www.w3.org/2000/svg" xmlns:xlink="http://www.w3.org/1999/xlink" width="24" height="28" viewBox="0 0 24 28" data-code="61897" data-tags="file-code-o"><g fill="#444" transform="scale(0.02734375 0.02734375)"><path d="M838.857 217.143c21.143 21.143 38.857 63.429 38.857 93.714v658.286c0 30.286-24.571 54.857-54.857 54.857h-768c-30.286 0-54.857-24.571-54.857-54.857v-914.286c0-30.286 24.571-54.857 54.857-54.857h512c30.286 0 72.571 17.714 93.714 38.857zM585.143 77.714v214.857h214.857c-3.429-9.714-8.571-19.429-12.571-23.429l-178.857-178.857c-4-4-13.714-9.143-23.429-12.571zM804.571 950.857v-585.143h-237.714c-30.286 0-54.857-24.571-54.857-54.857v-237.714h-438.857v877.714h731.429zM274.286 438.857c6.286-8 17.714-9.714 25.714-3.429l29.143 21.714c8 6.286 9.714 17.714 3.429 25.714l-104 138.857 104 138.857c6.286 8 4.571 19.429-3.429 25.714l-29.143 21.714c-8 6.286-19.429 4.571-25.714-3.429l-129.143-172c-4.571-6.286-4.571-15.429 0-21.714zM732.571 610.857c4.571 6.286 4.571 15.429 0 21.714l-129.143 172c-6.286 8-17.714 9.714-25.714 3.429l-29.143-21.714c-8-6.286-9.714-17.714-3.429-25.714l104-138.857-104-138.857c-6.286-8-4.571-19.429 3.429-25.714l29.143-21.714c8-6.286 19.429-4.571 25.714 3.429zM378.286 874.286c-10.286-1.714-16.571-11.429-14.857-21.143l78.857-474.857c1.714-10.286 11.429-16.571 21.143-14.857l36 5.714c10.286 1.714 16.571 11.429 14.857 21.143l-78.857 474.857c-1.714 10.286-11.429 16.571-21.143 14.857z" /></g></svg>