<!-- Generated by IcoMoon.io -->
<svg version="1.1" xmlns="http://www.w3.org/2000/svg" width="416" height="448" viewBox="0 0 416 448">
<title></title>
<g id="icomoon-ignore">
</g>
<path fill="#000" d="M408 240c0 8.75-7.25 16-16 16h-56c0 31.25-6.75 54.75-16.75 72.5l52 52.25c6.25 6.25 6.25 16.25 0 22.5-3 3.25-7.25 4.75-11.25 4.75s-8.25-1.5-11.25-4.75l-49.5-49.25s-32.75 30-75.25 30v-224h-32v224c-45.25 0-78.25-33-78.25-33l-45.75 51.75c-3.25 3.5-7.5 5.25-12 5.25-3.75 0-7.5-1.25-10.75-4-6.5-6-7-16-1.25-22.75l50.5-56.75c-8.75-17.25-14.5-39.5-14.5-68.5h-56c-8.75 0-16-7.25-16-16s7.25-16 16-16h56v-73.5l-43.25-43.25c-6.25-6.25-6.25-16.25 0-22.5s16.25-6.25 22.5 0l43.25 43.25h211l43.25-43.25c6.25-6.25 16.25-6.25 22.5 0s6.25 16.25 0 22.5l-43.25 43.25v73.5h56c8.75 0 16 7.25 16 16zM288 96h-160c0-44.25 35.75-80 80-80s80 35.75 80 80z"></path>
</svg>
