<!-- Generated by IcoMoon.io -->
<svg version="1.1" xmlns="http://www.w3.org/2000/svg" width="384" height="448" viewBox="0 0 384 448">
<title></title>
<g id="icomoon-ignore">
</g>
<path fill="#000" d="M352 32c0 92.5-44.25 159.5-93.25 192 49 32.5 93.25 99.5 93.25 192h24c4.5 0 8 3.5 8 8v16c0 4.5-3.5 8-8 8h-368c-4.5 0-8-3.5-8-8v-16c0-4.5 3.5-8 8-8h24c0-92.5 44.25-159.5 93.25-192-49-32.5-93.25-99.5-93.25-192h-24c-4.5 0-8-3.5-8-8v-16c0-4.5 3.5-8 8-8h368c4.5 0 8 3.5 8 8v16c0 4.5-3.5 8-8 8h-24zM320 32h-256c0 36.5 8.25 68.75 21.25 96h213.5c13-27.25 21.25-59.5 21.25-96zM305.75 336c-18.5-48.25-51.75-82.5-85-96h-57.5c-33.25 13.5-66.5 47.75-85 96h227.5z"></path>
</svg>
