<?xml version="1.0" encoding="utf-8"?><!DOCTYPE svg PUBLIC "-//W3C//DTD SVG 1.1//EN" "http://www.w3.org/Graphics/SVG/1.1/DTD/svg11.dtd"><svg version="1.1" xmlns="http://www.w3.org/2000/svg" xmlns:xlink="http://www.w3.org/1999/xlink" width="28" height="28" viewBox="0 0 28 28" data-code="61668" data-tags="dashboard,tachometer"><g fill="#444" transform="scale(0.02734375 0.02734375)"><path d="M219.429 658.286c0-40.571-32.571-73.143-73.143-73.143s-73.143 32.571-73.143 73.143 32.571 73.143 73.143 73.143 73.143-32.571 73.143-73.143zM329.143 402.286c0-40.571-32.571-73.143-73.143-73.143s-73.143 32.571-73.143 73.143 32.571 73.143 73.143 73.143 73.143-32.571 73.143-73.143zM573.714 677.143l57.714-218.286c4.571-19.429-6.857-39.429-26.286-44.571v0c-19.429-5.143-39.429 6.857-44.571 26.286l-57.714 218.286c-45.143 3.429-84.571 34.857-97.143 81.143-15.429 58.857 20 118.857 78.286 134.286 58.857 15.429 118.857-20 134.286-78.286 12-46.286-7.429-93.143-44.571-118.857zM950.857 658.286c0-40.571-32.571-73.143-73.143-73.143s-73.143 32.571-73.143 73.143 32.571 73.143 73.143 73.143 73.143-32.571 73.143-73.143zM585.143 292.571c0-40.571-32.571-73.143-73.143-73.143s-73.143 32.571-73.143 73.143 32.571 73.143 73.143 73.143 73.143-32.571 73.143-73.143zM841.143 402.286c0-40.571-32.571-73.143-73.143-73.143s-73.143 32.571-73.143 73.143 32.571 73.143 73.143 73.143 73.143-32.571 73.143-73.143zM1024 658.286c0 98.286-28 193.143-80.571 276-6.857 10.286-18.286 16.571-30.857 16.571h-801.143c-12.571 0-24-6.286-30.857-16.571-52.571-82.286-80.571-177.714-80.571-276 0-282.286 229.714-512 512-512s512 229.714 512 512z" /></g></svg>